<mxfile host="app.diagrams.net" modified="2020-10-10T18:39:30.281Z" agent="5.0 (Windows)" etag="RngnQYuy75xhoyKKt8ub" version="13.7.9" type="github">
  <diagram id="R2lEEEUBdFMjLlhIrx00" name="Page-1">
    <mxGraphModel dx="782" dy="1583" grid="1" gridSize="10" guides="1" tooltips="1" connect="1" arrows="1" fold="1" page="1" pageScale="1" pageWidth="850" pageHeight="1100" math="0" shadow="0" extFonts="Permanent Marker^https://fonts.googleapis.com/css?family=Permanent+Marker">
      <root>
        <mxCell id="0" />
        <mxCell id="1" parent="0" />
        <mxCell id="CmyvTzAQ2AaMNCMZPIMG-6" style="edgeStyle=orthogonalEdgeStyle;rounded=0;orthogonalLoop=1;jettySize=auto;html=1;exitX=0;exitY=0;exitDx=0;exitDy=0;entryX=0.5;entryY=1;entryDx=0;entryDy=0;" edge="1" parent="1" source="CmyvTzAQ2AaMNCMZPIMG-2" target="CmyvTzAQ2AaMNCMZPIMG-5">
          <mxGeometry relative="1" as="geometry">
            <Array as="points">
              <mxPoint x="220" y="90" />
            </Array>
          </mxGeometry>
        </mxCell>
        <mxCell id="CmyvTzAQ2AaMNCMZPIMG-7" style="edgeStyle=orthogonalEdgeStyle;rounded=0;orthogonalLoop=1;jettySize=auto;html=1;exitX=0.5;exitY=0;exitDx=0;exitDy=0;entryX=0.5;entryY=1;entryDx=0;entryDy=0;" edge="1" parent="1" source="CmyvTzAQ2AaMNCMZPIMG-2" target="CmyvTzAQ2AaMNCMZPIMG-4">
          <mxGeometry relative="1" as="geometry" />
        </mxCell>
        <mxCell id="CmyvTzAQ2AaMNCMZPIMG-9" style="edgeStyle=orthogonalEdgeStyle;rounded=0;orthogonalLoop=1;jettySize=auto;html=1;exitX=1;exitY=0;exitDx=0;exitDy=0;entryX=0.5;entryY=1;entryDx=0;entryDy=0;" edge="1" parent="1" source="CmyvTzAQ2AaMNCMZPIMG-2" target="CmyvTzAQ2AaMNCMZPIMG-3">
          <mxGeometry relative="1" as="geometry">
            <Array as="points">
              <mxPoint x="560" y="90" />
            </Array>
          </mxGeometry>
        </mxCell>
        <mxCell id="CmyvTzAQ2AaMNCMZPIMG-14" style="edgeStyle=orthogonalEdgeStyle;rounded=0;orthogonalLoop=1;jettySize=auto;html=1;exitX=0;exitY=0.5;exitDx=0;exitDy=0;entryX=0.5;entryY=0;entryDx=0;entryDy=0;" edge="1" parent="1" source="CmyvTzAQ2AaMNCMZPIMG-2" target="CmyvTzAQ2AaMNCMZPIMG-12">
          <mxGeometry relative="1" as="geometry" />
        </mxCell>
        <mxCell id="CmyvTzAQ2AaMNCMZPIMG-15" style="edgeStyle=orthogonalEdgeStyle;rounded=0;orthogonalLoop=1;jettySize=auto;html=1;exitX=1;exitY=0.5;exitDx=0;exitDy=0;entryX=0.5;entryY=0;entryDx=0;entryDy=0;" edge="1" parent="1" source="CmyvTzAQ2AaMNCMZPIMG-2" target="CmyvTzAQ2AaMNCMZPIMG-13">
          <mxGeometry relative="1" as="geometry" />
        </mxCell>
        <mxCell id="CmyvTzAQ2AaMNCMZPIMG-2" value="&lt;div&gt;car&lt;/div&gt;" style="rounded=0;whiteSpace=wrap;html=1;" vertex="1" parent="1">
          <mxGeometry x="350" y="90" width="120" height="60" as="geometry" />
        </mxCell>
        <mxCell id="CmyvTzAQ2AaMNCMZPIMG-3" value="&lt;div&gt;new or used&lt;/div&gt;" style="ellipse;whiteSpace=wrap;html=1;" vertex="1" parent="1">
          <mxGeometry x="500" y="-10" width="120" height="80" as="geometry" />
        </mxCell>
        <mxCell id="CmyvTzAQ2AaMNCMZPIMG-4" value="&lt;u&gt;car id&lt;/u&gt;" style="ellipse;whiteSpace=wrap;html=1;" vertex="1" parent="1">
          <mxGeometry x="330" y="-10" width="120" height="80" as="geometry" />
        </mxCell>
        <mxCell id="CmyvTzAQ2AaMNCMZPIMG-5" value="&lt;div&gt;car service history&lt;/div&gt;" style="ellipse;whiteSpace=wrap;html=1;" vertex="1" parent="1">
          <mxGeometry x="160" y="-10" width="120" height="80" as="geometry" />
        </mxCell>
        <mxCell id="CmyvTzAQ2AaMNCMZPIMG-10" value="&lt;div&gt;sales man&lt;/div&gt;" style="rounded=0;whiteSpace=wrap;html=1;" vertex="1" parent="1">
          <mxGeometry x="40" y="240" width="120" height="60" as="geometry" />
        </mxCell>
        <mxCell id="CmyvTzAQ2AaMNCMZPIMG-11" value="&lt;div&gt;customer&lt;/div&gt;" style="rounded=0;whiteSpace=wrap;html=1;" vertex="1" parent="1">
          <mxGeometry x="640" y="240" width="120" height="60" as="geometry" />
        </mxCell>
        <mxCell id="CmyvTzAQ2AaMNCMZPIMG-17" style="edgeStyle=orthogonalEdgeStyle;rounded=0;orthogonalLoop=1;jettySize=auto;html=1;exitX=0.5;exitY=1;exitDx=0;exitDy=0;entryX=1;entryY=0.5;entryDx=0;entryDy=0;" edge="1" parent="1" source="CmyvTzAQ2AaMNCMZPIMG-12" target="CmyvTzAQ2AaMNCMZPIMG-10">
          <mxGeometry relative="1" as="geometry" />
        </mxCell>
        <mxCell id="CmyvTzAQ2AaMNCMZPIMG-12" value="&lt;div&gt;sale&lt;/div&gt;" style="rhombus;whiteSpace=wrap;html=1;" vertex="1" parent="1">
          <mxGeometry x="180" y="140" width="80" height="80" as="geometry" />
        </mxCell>
        <mxCell id="CmyvTzAQ2AaMNCMZPIMG-16" style="edgeStyle=orthogonalEdgeStyle;rounded=0;orthogonalLoop=1;jettySize=auto;html=1;exitX=0.5;exitY=1;exitDx=0;exitDy=0;" edge="1" parent="1" source="CmyvTzAQ2AaMNCMZPIMG-13" target="CmyvTzAQ2AaMNCMZPIMG-11">
          <mxGeometry relative="1" as="geometry" />
        </mxCell>
        <mxCell id="CmyvTzAQ2AaMNCMZPIMG-13" value="&lt;div&gt;buy&lt;/div&gt;" style="rhombus;whiteSpace=wrap;html=1;" vertex="1" parent="1">
          <mxGeometry x="520" y="160" width="80" height="80" as="geometry" />
        </mxCell>
      </root>
    </mxGraphModel>
  </diagram>
</mxfile>
